<svg width="12" height="21" viewBox="0 0 12 21" fill="none" xmlns="http://www.w3.org/2000/svg">
<path d="M2.52902e-05 10.5636C-0.0011153 10.3663 0.0367027 10.1707 0.111311 9.98805C0.18592 9.80538 0.295851 9.63924 0.434802 9.49916L9.43018 0.503777C9.71249 0.221467 10.0954 0.0628661 10.4946 0.0628661C10.8939 0.0628662 11.2768 0.221467 11.5591 0.503777C11.8414 0.786088 12 1.16898 12 1.56823C12 1.96748 11.8414 2.35037 11.5591 2.63268L3.61317 10.5636L11.5441 18.4945C11.7897 18.7813 11.9181 19.1503 11.9035 19.5276C11.8889 19.9049 11.7325 20.2628 11.4655 20.5298C11.1985 20.7968 10.8406 20.9533 10.4632 20.9678C10.0859 20.9824 9.71699 20.8541 9.43018 20.6084L0.434802 11.6131C0.157828 11.3338 0.00168181 10.9569 2.52902e-05 10.5636Z" fill="white"/>
</svg>
