<svg width="13" height="21" viewBox="0 0 13 21" fill="none" xmlns="http://www.w3.org/2000/svg">
<path d="M12.9687 10.4681C12.9699 10.6654 12.932 10.861 12.8574 11.0437C12.7828 11.2264 12.6729 11.3925 12.5339 11.5326L3.53857 20.528C3.25626 20.8103 2.87336 20.9689 2.47411 20.9689C2.07487 20.9689 1.69197 20.8103 1.40966 20.528C1.12735 20.2457 0.96875 19.8628 0.96875 19.4635C0.96875 19.0643 1.12735 18.6814 1.40966 18.3991L9.35558 10.4681L1.42465 2.5372C1.17904 2.2504 1.0507 1.88148 1.06527 1.50415C1.07984 1.12683 1.23626 0.768909 1.50327 0.501904C1.77027 0.234899 2.1282 0.0784835 2.50552 0.0639095C2.88284 0.0493354 3.25176 0.177675 3.53857 0.423288L12.5339 9.41867C12.8109 9.69792 12.9671 10.0748 12.9687 10.4681Z" fill="white"/>
</svg>
