<svg width="124" height="22" viewBox="0 0 124 22" fill="none" xmlns="http://www.w3.org/2000/svg">
<path d="M40.9646 1.04878C41.0591 1.04878 41.1347 1.08657 41.1914 1.16216C41.267 1.21885 41.3047 1.29444 41.3047 1.38892V4.73368C41.3047 4.82816 41.267 4.9132 41.1914 4.98879C41.1347 5.04548 41.0591 5.07382 40.9646 5.07382H37.4498C37.3553 5.07382 37.308 5.12107 37.308 5.21555V20.5504C37.308 20.6449 37.2703 20.7299 37.1947 20.8055C37.138 20.8622 37.0624 20.8905 36.9679 20.8905H32.9429C32.8484 20.8905 32.7633 20.8622 32.6878 20.8055C32.6311 20.7299 32.6027 20.6449 32.6027 20.5504V5.21555C32.6027 5.12107 32.5555 5.07382 32.461 5.07382H29.0879C28.9934 5.07382 28.9084 5.04548 28.8328 4.98879C28.7761 4.9132 28.7477 4.82816 28.7477 4.73368V1.38892C28.7477 1.29444 28.7761 1.21885 28.8328 1.16216C28.9084 1.08657 28.9934 1.04878 29.0879 1.04878H40.9646Z" fill="white"/>
<path d="M45.028 4.9321C44.3288 4.9321 43.743 4.70533 43.2705 4.25181C42.817 3.77938 42.5903 3.18413 42.5903 2.46605C42.5903 1.72907 42.817 1.13382 43.2705 0.680289C43.7241 0.226763 44.3099 0 45.028 0C45.746 0 46.3318 0.226763 46.7854 0.680289C47.2578 1.13382 47.494 1.72907 47.494 2.46605C47.494 3.16524 47.2578 3.75104 46.7854 4.22346C46.3318 4.69589 45.746 4.9321 45.028 4.9321ZM43.0721 20.8905C42.9776 20.8905 42.8926 20.8622 42.817 20.8055C42.7603 20.7299 42.732 20.6449 42.732 20.5504V6.57613C42.732 6.48165 42.7603 6.40606 42.817 6.34937C42.8926 6.27378 42.9776 6.23599 43.0721 6.23599H47.0972C47.1917 6.23599 47.2672 6.27378 47.3239 6.34937C47.3995 6.40606 47.4373 6.48165 47.4373 6.57613V20.5504C47.4373 20.6449 47.3995 20.7299 47.3239 20.8055C47.2672 20.8622 47.1917 20.8905 47.0972 20.8905H43.0721Z" fill="white"/>
<path d="M54.599 21.1173C52.8037 21.1173 51.4054 20.6921 50.4038 19.8418C49.4023 18.9725 48.9015 17.7631 48.9015 16.2136V10.913C48.9015 9.43901 49.4023 8.25796 50.4038 7.3698C51.4243 6.46275 52.8226 6.00922 54.599 6.00922C56.3753 6.00922 57.7642 6.4533 58.7657 7.34146C59.7673 8.22961 60.268 9.39177 60.268 10.8279V11.4515C60.268 11.546 60.2302 11.6311 60.1546 11.7066C60.098 11.7633 60.0224 11.7917 59.9279 11.7917L55.9028 11.9618C55.6761 11.9618 55.5627 11.8484 55.5627 11.6216V11.1964C55.5627 10.8752 55.4682 10.6012 55.2792 10.3744C55.1092 10.1476 54.8824 10.0343 54.599 10.0343C54.2966 10.0343 54.0509 10.1476 53.862 10.3744C53.6919 10.6012 53.6069 10.9035 53.6069 11.2815V15.8451C53.6069 16.223 53.6919 16.5254 53.862 16.7521C54.0509 16.9789 54.2966 17.0923 54.599 17.0923C54.8824 17.0923 55.1092 16.9789 55.2792 16.7521C55.4682 16.5254 55.5627 16.2419 55.5627 15.9018V15.4766C55.5627 15.3821 55.591 15.3065 55.6477 15.2498C55.7233 15.1742 55.8084 15.1364 55.9028 15.1364L59.9279 15.1648C60.0224 15.1648 60.098 15.2026 60.1546 15.2782C60.2302 15.3349 60.268 15.4104 60.268 15.5049V16.2703C60.268 17.8009 59.7673 18.9914 58.7657 19.8418C57.7831 20.6921 56.3942 21.1173 54.599 21.1173Z" fill="white"/>
<path d="M66.9947 21.1173C65.2751 21.1173 63.9051 20.711 62.8847 19.8985C61.8642 19.067 61.354 17.9804 61.354 16.6387V16.4687C61.354 16.3742 61.3824 16.2986 61.439 16.2419C61.5146 16.1663 61.5997 16.1285 61.6942 16.1285H65.4924C65.5869 16.1285 65.6625 16.1663 65.7192 16.2419C65.7948 16.2986 65.8326 16.3742 65.8326 16.4687V16.5254C65.8326 16.8655 65.946 17.1395 66.1727 17.3474C66.4184 17.5363 66.6829 17.6308 66.9664 17.6308C67.231 17.6308 67.4388 17.5552 67.59 17.4041C67.7412 17.234 67.8168 17.0261 67.8168 16.7805C67.8168 16.4403 67.6561 16.1852 67.3349 16.0151C67.0136 15.8262 66.5034 15.6183 65.8042 15.3915L65.1806 15.1931C62.7429 14.3617 61.5241 12.8499 61.5241 10.6579C61.5241 9.2217 62.006 8.08788 62.9697 7.25642C63.9334 6.42495 65.2184 6.00922 66.8247 6.00922C68.4687 6.00922 69.782 6.46275 70.7647 7.3698C71.7473 8.25796 72.2386 9.43901 72.2386 10.913C72.2386 11.1208 72.1253 11.2248 71.8985 11.2248H68.2136C68.1191 11.2248 68.0341 11.1964 67.9585 11.1397C67.9018 11.0641 67.8735 10.9791 67.8735 10.8846V10.6579C67.8735 10.3555 67.7884 10.1193 67.6183 9.94923C67.4483 9.76026 67.2215 9.66578 66.9381 9.66578C66.6546 9.66578 66.4278 9.76971 66.2578 9.97758C66.1066 10.1665 66.031 10.3933 66.031 10.6579C66.031 11.0736 66.22 11.3948 66.5979 11.6216C66.9758 11.8484 67.505 12.0751 68.1853 12.3019C69.0167 12.5854 69.7348 12.8877 70.3395 13.209C70.9442 13.5113 71.4639 13.9554 71.8985 14.5412C72.3331 15.1081 72.5504 15.8356 72.5504 16.7238C72.5504 18.0844 72.0402 19.1615 71.0198 19.9552C70.0183 20.7299 68.6766 21.1173 66.9947 21.1173Z" fill="white"/>
<path d="M85.7248 1.04878C85.8193 1.04878 85.8949 1.08657 85.9516 1.16216C86.0272 1.21885 86.065 1.29444 86.065 1.38892V4.73368C86.065 4.82816 86.0272 4.9132 85.9516 4.98879C85.8949 5.04548 85.8193 5.07382 85.7248 5.07382H82.21C82.1155 5.07382 82.0683 5.12107 82.0683 5.21555V20.5504C82.0683 20.6449 82.0305 20.7299 81.9549 20.8055C81.8982 20.8622 81.8226 20.8905 81.7281 20.8905H77.7031C77.6086 20.8905 77.5236 20.8622 77.448 20.8055C77.3913 20.7299 77.363 20.6449 77.363 20.5504V5.21555C77.363 5.12107 77.3157 5.07382 77.2212 5.07382H73.8481C73.7536 5.07382 73.6686 5.04548 73.593 4.98879C73.5363 4.9132 73.508 4.82816 73.508 4.73368V1.38892C73.508 1.29444 73.5363 1.21885 73.593 1.16216C73.6686 1.08657 73.7536 1.04878 73.8481 1.04878H85.7248Z" fill="white"/>
<path d="M93.5141 6.57613C93.5141 6.48165 93.5424 6.40606 93.5991 6.34937C93.6747 6.27378 93.7597 6.23599 93.8542 6.23599H97.8793C97.9737 6.23599 98.0493 6.27378 98.106 6.34937C98.1816 6.40606 98.2194 6.48165 98.2194 6.57613V20.5504C98.2194 20.6449 98.1816 20.7299 98.106 20.8055C98.0493 20.8622 97.9737 20.8905 97.8793 20.8905H93.8542C93.7597 20.8905 93.6747 20.8622 93.5991 20.8055C93.5424 20.7299 93.5141 20.6449 93.5141 20.5504V20.1819C93.5141 20.1252 93.4952 20.0969 93.4574 20.0969C93.4196 20.078 93.3818 20.0969 93.344 20.1536C93.0605 20.5126 92.7109 20.7583 92.2952 20.8905C91.8984 21.0417 91.426 21.1173 90.8779 21.1173C89.7441 21.1173 88.7993 20.7677 88.0434 20.0685C87.2875 19.3693 86.9096 18.2922 86.9096 16.8372V6.57613C86.9096 6.48165 86.9379 6.40606 86.9946 6.34937C87.0702 6.27378 87.1553 6.23599 87.2497 6.23599H91.2748C91.3693 6.23599 91.4449 6.27378 91.5015 6.34937C91.5771 6.40606 91.6149 6.48165 91.6149 6.57613V15.7884C91.6149 16.6387 91.9173 17.0639 92.522 17.0639C92.8432 17.0639 93.0889 16.9505 93.259 16.7238C93.429 16.497 93.5141 16.1758 93.5141 15.76V6.57613Z" fill="white"/>
<path d="M107.32 6.00922C109.909 6.00922 111.204 7.64381 111.204 10.913V16.2136C111.204 19.4827 109.909 21.1173 107.32 21.1173C106.224 21.1173 105.365 20.7205 104.741 19.9268C104.703 19.889 104.665 19.8796 104.628 19.8985C104.59 19.8985 104.571 19.9268 104.571 19.9835V20.5504C104.571 20.6449 104.533 20.7299 104.458 20.8055C104.401 20.8622 104.325 20.8905 104.231 20.8905H100.206C100.111 20.8905 100.026 20.8622 99.9507 20.8055C99.894 20.7299 99.8656 20.6449 99.8656 20.5504V1.38892C99.8656 1.29444 99.894 1.21885 99.9507 1.16216C100.026 1.08657 100.111 1.04878 100.206 1.04878H104.231C104.325 1.04878 104.401 1.08657 104.458 1.16216C104.533 1.21885 104.571 1.29444 104.571 1.38892V7.22807C104.571 7.26587 104.58 7.28476 104.599 7.28476C104.656 7.28476 104.769 7.19973 104.939 7.02966C105.544 6.34937 106.338 6.00922 107.32 6.00922ZM106.498 11.2815C106.498 10.9035 106.413 10.6012 106.243 10.3744C106.073 10.1476 105.847 10.0343 105.563 10.0343C105.261 10.0343 105.015 10.1476 104.826 10.3744C104.656 10.6012 104.571 10.9035 104.571 11.2815V15.8451C104.571 16.223 104.656 16.5254 104.826 16.7521C105.015 16.9789 105.261 17.0923 105.563 17.0923C105.847 17.0923 106.073 16.9789 106.243 16.7521C106.413 16.5254 106.498 16.223 106.498 15.8451V11.2815Z" fill="white"/>
<path d="M123.934 14.5128C123.934 14.6073 123.897 14.6924 123.821 14.7679C123.764 14.8246 123.689 14.853 123.594 14.853H117.415C117.32 14.853 117.273 14.9002 117.273 14.9947V15.8451C117.273 16.223 117.358 16.5254 117.528 16.7521C117.717 16.9789 117.963 17.0923 118.265 17.0923C118.53 17.0923 118.747 16.9978 118.917 16.8088C119.087 16.6198 119.201 16.3836 119.257 16.1002C119.276 15.8923 119.399 15.7884 119.626 15.7884L123.538 16.0151C123.632 16.0151 123.708 16.0529 123.764 16.1285C123.84 16.1852 123.868 16.2703 123.849 16.3836C123.679 19.5394 121.818 21.1173 118.265 21.1173C116.47 21.1173 115.072 20.6921 114.07 19.8418C113.069 18.9725 112.568 17.7631 112.568 16.2136V10.913C112.568 9.43901 113.069 8.25796 114.07 7.3698C115.091 6.46275 116.489 6.00922 118.265 6.00922C120.042 6.00922 121.431 6.4533 122.432 7.34146C123.434 8.22961 123.934 9.42012 123.934 10.913V14.5128ZM118.265 10.0343C117.963 10.0343 117.717 10.1476 117.528 10.3744C117.358 10.6012 117.273 10.9035 117.273 11.2815V12.1602C117.273 12.2547 117.32 12.3019 117.415 12.3019H119.087C119.182 12.3019 119.229 12.2547 119.229 12.1602V11.2815C119.229 10.9224 119.135 10.6295 118.946 10.4028C118.776 10.1571 118.549 10.0343 118.265 10.0343Z" fill="white"/>
<path fill-rule="evenodd" clip-rule="evenodd" d="M3.57097 20.0969C3.17394 20.4107 2.6321 20.4701 2.17653 20.2496C1.72096 20.0291 1.43134 19.5674 1.43134 19.0612V2.35122C1.43134 1.84503 1.72052 1.3833 2.17653 1.16277C2.6321 0.942252 3.1735 1.00167 3.57053 1.3155L14.1367 9.66806C14.4531 9.91851 14.638 10.3001 14.638 10.7038C14.638 11.1078 14.4536 11.4895 14.1367 11.7399L3.57097 20.0969Z" fill="#FF0000"/>
<path fill-rule="evenodd" clip-rule="evenodd" d="M18.5977 20.39H17.2772C16.5479 20.39 15.9567 19.7989 15.9567 19.0695V2.34332C15.9567 1.61397 16.5479 1.02283 17.2772 1.02283H18.5977C19.3271 1.02283 19.9182 1.61397 19.9182 2.34332V19.0695C19.9182 19.7989 19.3271 20.39 18.5977 20.39Z" fill="#FF0000"/>
</svg>
